<svg width="677" height="208" viewBox="0 0 677 208" fill="none" xmlns="http://www.w3.org/2000/svg">
<path d="M238.976 204.884L273.193 4.10461H327.921L293.68 204.884H238.976ZM491.397 8.43282C480.556 4.36513 463.564 0 442.349 0C388.272 0 350.18 27.2308 349.856 66.2595C349.55 95.1108 377.05 111.205 397.807 120.809C419.111 130.65 426.271 136.926 426.17 145.715C426.036 159.172 409.159 165.321 393.43 165.321C371.525 165.321 359.888 162.278 341.915 154.782L334.863 151.592L327.182 196.538C339.964 202.143 363.602 206.998 388.144 207.249C445.672 207.249 483.015 180.33 483.442 138.652C483.646 115.812 469.067 98.4308 437.492 84.1005C418.364 74.8133 406.649 68.6144 406.773 59.2103C406.773 50.8646 416.689 41.9395 438.114 41.9395C456.01 41.6626 468.975 45.5651 479.076 49.6318L483.98 51.9497L491.397 8.43282ZM632.228 4.10153H589.938C576.838 4.10153 567.034 7.67795 561.281 20.7518L480.005 204.752H537.473C537.473 204.752 546.868 180.01 548.993 174.58C555.275 174.58 611.101 174.666 619.083 174.666C620.72 181.694 625.74 204.752 625.74 204.752H676.523L632.228 4.09538V4.10153ZM565.132 133.753C569.658 122.185 586.937 77.6267 586.937 77.6267C586.613 78.1621 591.429 66.0021 594.193 58.4636L597.89 75.7754C597.89 75.7754 608.371 123.703 610.561 133.753H565.132ZM192.517 4.10153L138.937 141.025L133.228 113.199C123.253 81.1241 92.1764 46.3733 57.4349 28.9754L106.426 204.565L164.329 204.5L250.487 4.09948H192.517" fill="#0E4595"/>
<path d="M88.9456 4.09445H0.698461L0 8.27188C68.6544 24.8914 114.082 65.0544 132.944 113.308L113.754 21.0411C110.441 8.32829 100.834 4.53443 88.9477 4.09033" fill="#F2AE14"/>
</svg>
