<svg width="521" height="389" viewBox="0 0 521 389" fill="none" xmlns="http://www.w3.org/2000/svg">
<path d="M75.8985 388.024V358.457C75.8985 347.147 68.9618 339.74 57.0539 339.74C51.1 339.74 44.6258 341.692 40.1747 348.123C36.7064 342.726 31.7352 339.74 24.2783 339.74C19.307 339.74 14.3357 341.233 10.405 346.63V340.716H0V388.024H10.405V361.901C10.405 353.519 14.856 349.558 21.7926 349.558C28.7293 349.558 32.1976 353.979 32.1976 361.901V388.024H42.6026V361.901C42.6026 353.519 47.5738 349.558 53.9902 349.558C60.9269 349.558 64.3952 353.979 64.3952 361.901V388.024H75.8985ZM230.239 340.716H213.36V326.421H202.955V340.716H193.532V350.075H202.955V371.776C202.955 382.627 207.406 389 219.314 389C223.765 389 228.736 387.507 232.204 385.555L229.198 376.656C226.192 378.608 222.724 379.125 220.239 379.125C215.267 379.125 213.302 376.14 213.302 371.26V350.075H230.181V340.716H230.239ZM318.566 339.683C312.612 339.683 308.623 342.668 306.137 346.572V340.659H295.732V387.967H306.137V361.327C306.137 353.462 309.606 348.984 316.08 348.984C318.045 348.984 320.531 349.5 322.554 349.96L325.56 340.085C323.479 339.683 320.531 339.683 318.566 339.683ZM185.093 344.62C180.122 341.176 173.185 339.683 165.728 339.683C153.82 339.683 145.901 345.596 145.901 354.955C145.901 362.82 151.855 367.298 162.26 368.734L167.231 369.25C172.665 370.226 175.671 371.719 175.671 374.188C175.671 377.632 171.682 380.101 164.745 380.101C157.809 380.101 152.317 377.632 148.849 375.164L143.878 383.029C149.311 386.991 156.768 388.943 164.225 388.943C178.098 388.943 186.076 382.512 186.076 373.671C186.076 365.289 179.601 360.868 169.717 359.375L164.745 358.859C160.294 358.342 156.826 357.366 156.826 354.438C156.826 350.993 160.294 349.041 165.786 349.041C171.74 349.041 177.694 351.51 180.7 353.003L185.093 344.62ZM461.923 339.683C455.969 339.683 451.98 342.668 449.495 346.572V340.659H439.09V387.967H449.495V361.327C449.495 353.462 452.963 348.984 459.437 348.984C461.403 348.984 463.888 349.5 465.911 349.96L468.917 340.2C466.894 339.683 463.946 339.683 461.923 339.683ZM328.97 364.37C328.97 378.666 338.913 389 354.289 389C361.226 389 366.197 387.507 371.168 383.603L366.197 375.221C362.209 378.207 358.278 379.642 353.769 379.642C345.329 379.642 339.375 373.728 339.375 364.37C339.375 355.471 345.329 349.558 353.769 349.099C358.22 349.099 362.209 350.591 366.197 353.519L371.168 345.137C366.197 341.176 361.226 339.74 354.289 339.74C338.913 339.683 328.97 350.075 328.97 364.37ZM425.216 364.37V340.716H414.812V346.63C411.343 342.209 406.372 339.74 399.898 339.74C386.487 339.74 376.082 350.075 376.082 364.37C376.082 378.666 386.487 389 399.898 389C406.834 389 411.806 386.531 414.812 382.111V388.024H425.216V364.37ZM387.007 364.37C387.007 355.988 392.441 349.099 401.401 349.099C409.84 349.099 415.794 355.529 415.794 364.37C415.794 372.752 409.84 379.642 401.401 379.642C392.499 379.125 387.007 372.695 387.007 364.37ZM262.494 339.683C248.621 339.683 238.678 349.558 238.678 364.313C238.678 379.125 248.621 388.943 263.015 388.943C269.951 388.943 276.888 386.991 282.379 382.512L277.408 375.106C273.42 378.092 268.448 380.044 263.535 380.044C257.061 380.044 250.644 377.058 249.141 368.734H284.345C284.345 367.241 284.345 366.265 284.345 364.772C284.807 349.558 275.847 339.683 262.494 339.683ZM262.494 348.582C268.968 348.582 273.42 352.543 274.402 359.892H249.604C250.586 353.519 255.037 348.582 262.494 348.582ZM521 364.37V322H510.595V346.63C507.127 342.209 502.155 339.74 495.681 339.74C482.27 339.74 471.865 350.075 471.865 364.37C471.865 378.666 482.27 389 495.681 389C502.618 389 507.589 386.531 510.595 382.111V388.024H521V364.37ZM482.791 364.37C482.791 355.988 488.224 349.099 497.184 349.099C505.624 349.099 511.578 355.529 511.578 364.37C511.578 372.752 505.624 379.642 497.184 379.642C488.224 379.125 482.791 372.695 482.791 364.37ZM134.455 364.37V340.716H124.05V346.63C120.582 342.209 115.611 339.74 109.137 339.74C95.7257 339.74 85.3207 350.075 85.3207 364.37C85.3207 378.666 95.7257 389 109.137 389C116.073 389 121.044 386.531 124.05 382.111V388.024H134.455V364.37ZM95.7835 364.37C95.7835 355.988 101.217 349.099 110.177 349.099C118.617 349.099 124.571 355.529 124.571 364.37C124.571 372.752 118.617 379.642 110.177 379.642C101.217 379.125 95.7835 372.695 95.7835 364.37Z" fill="black"/>
<path d="M330.545 34.4404H189.657V287.56H330.545V34.4404Z" fill="#FF5A00"/>
<path d="M199.036 161C199.036 109.574 223.212 63.9311 260.309 34.4405C233.007 12.9738 198.567 0 161 0C72.0071 0 0 72.0071 0 161C0 249.993 72.0071 322 161 322C198.567 322 233.007 309.026 260.309 287.56C223.16 258.486 199.036 212.426 199.036 161Z" fill="#EB001B"/>
<path d="M520.619 161C520.619 249.993 448.612 322 359.619 322C322.052 322 287.612 309.026 260.309 287.56C297.876 258.017 321.583 212.426 321.583 161C321.583 109.574 297.407 63.9311 260.309 34.4405C287.559 12.9738 322 0 359.567 0C448.612 0 520.619 72.4761 520.619 161Z" fill="#F79E1B"/>
</svg>
