<svg width="251" height="254" viewBox="0 0 251 254" fill="none" xmlns="http://www.w3.org/2000/svg">
<path d="M155.493 87.2184L128.829 5.15451C127.781 1.92993 123.219 1.92991 122.171 5.15451L95.5071 87.2184H9.22009C5.82957 87.2184 4.41984 91.557 7.16284 93.5499L76.9705 144.268L50.3064 226.332C49.2586 229.557 52.9493 232.238 55.6923 230.245L125.5 179.527L195.308 230.245C198.051 232.238 201.741 229.557 200.694 226.332L174.029 144.268L243.837 93.5499C246.58 91.557 245.17 87.2184 241.78 87.2184H155.493Z" fill="#EEEEEE" stroke="#EEEEEE" stroke-width="5"/>
<mask id="mask0_8_91" style="mask-type:alpha" maskUnits="userSpaceOnUse" x="8" y="5" width="235" height="224">
<path d="M124.549 5.92705C124.848 5.00574 126.152 5.00574 126.451 5.92705L153.452 89.0274C153.586 89.4394 153.97 89.7184 154.403 89.7184H241.78C242.749 89.7184 243.151 90.958 242.368 91.5274L171.678 142.886C171.328 143.141 171.181 143.592 171.315 144.004L198.316 227.105C198.615 228.026 197.561 228.792 196.777 228.223L126.088 176.864C125.737 176.609 125.263 176.609 124.912 176.864L54.2228 228.223C53.4391 228.792 52.3847 228.026 52.684 227.105L79.6849 144.004C79.8188 143.592 79.6722 143.141 79.3217 142.886L8.63231 91.5274C7.84859 90.958 8.25137 89.7184 9.22009 89.7184H96.597C97.0302 89.7184 97.4141 89.4394 97.548 89.0274L124.549 5.92705Z" fill="#5E5E5E"/>
</mask>
<g mask="url(#mask0_8_91)">
<path d="M124.549 5.92705C124.848 5.00574 126.152 5.00574 126.451 5.92705L153.452 89.0274C153.586 89.4394 153.97 89.7184 154.403 89.7184H241.78C242.749 89.7184 243.151 90.958 242.368 91.5274L171.678 142.886C171.328 143.141 171.181 143.592 171.315 144.004L198.316 227.105C198.615 228.026 197.561 228.792 196.777 228.223L126.088 176.864C125.737 176.609 125.263 176.609 124.912 176.864L54.2228 228.223C53.4391 228.792 52.3847 228.026 52.684 227.105L79.6849 144.004C79.8188 143.592 79.6722 143.141 79.3217 142.886L8.63231 91.5274C7.84859 90.958 8.25137 89.7184 9.22009 89.7184H96.597C97.0302 89.7184 97.4141 89.4394 97.548 89.0274L124.549 5.92705Z" fill="#5E5E5E"/>
<path d="M125.5 128.5L65 212L125.5 169V128.5Z" fill="#111111"/>
<path d="M125.422 128.777L186.365 211.954L163.973 141.188L125.422 128.777Z" fill="#111111"/>
<path d="M125.069 128.507L227.246 95.274L150.196 94.3927L125.069 128.507Z" fill="#111111"/>
<path d="M125.332 128.79L23.0966 95.7365L84.9664 141.666L125.332 128.79Z" fill="#111111"/>
<path d="M125.592 129.42L125.136 21.9757L100.776 95.0787L125.592 129.42Z" fill="#111111"/>
<path fill-rule="evenodd" clip-rule="evenodd" d="M129.18 14.3262L153.677 89.7184H232.948H244.858L235.223 96.7184L171.091 143.313L195.587 218.705L199.267 230.032L189.632 223.032L125.5 176.437L61.3676 223.032L51.7329 230.032L55.4131 218.705L79.9095 143.313L15.7771 96.7184L6.14241 89.7184H18.0515H97.3235L121.82 14.3262L125.5 3L129.18 14.3262ZM153.677 96.7184H221.633L126.733 127.561C133.685 117.985 141.015 107.879 149.097 96.7184H153.677ZM127.113 128.489L222.055 97.6328L166.976 137.65L163.37 140.27L127.113 128.489ZM28.9751 97.6548L123.877 128.489L87.6295 140.27L84.0239 137.65L28.9751 97.6548ZM124.117 129.463L87.9509 141.217L86.5668 145.476L65.5693 210.1C80.617 189.327 93.0988 172.152 105.579 154.978L105.585 154.971L105.595 154.957L105.596 154.956L105.599 154.952L105.604 154.944C111.677 146.588 117.749 138.233 124.117 129.463ZM124.297 127.574L101.904 96.7184H97.3235H29.3291L124.297 127.574ZM126.912 129.476L163.049 141.217L164.433 145.476L185.436 210.115L126.912 129.476ZM126 129.921L184.687 210.786L129.615 170.774L126 168.148V129.921ZM125 129.948C118.604 138.757 112.507 147.146 106.411 155.535L106.406 155.541L106.404 155.544C93.8969 172.755 81.3894 189.965 66.3007 210.795L121.386 170.774L125 168.148V129.948ZM125 126.841L102.635 96.0237L103.981 91.8815L125 27.1913V126.841ZM126 126.869V27.1913L147.019 91.8815L148.365 96.0242C140.282 107.187 132.951 117.294 126 126.869Z" fill="#202020"/>
</g>
</svg>
