<svg width="137" height="137" viewBox="0 0 137 137" fill="none" xmlns="http://www.w3.org/2000/svg">
<path fill-rule="evenodd" clip-rule="evenodd" d="M136 68.5C136 105.779 105.779 136 68.5 136C31.2208 136 1 105.779 1 68.5C1 31.2208 31.2208 1 68.5 1C105.779 1 136 31.2208 136 68.5ZM137 68.5C137 106.332 106.332 137 68.5 137C30.6685 137 0 106.332 0 68.5C0 30.6685 30.6685 0 68.5 0C106.332 0 137 30.6685 137 68.5ZM48.5869 17.1168L45.8743 14.1826L46.3442 18.1508L42.7153 19.8239L46.6346 20.6033L47.1044 24.5716L49.0568 21.085L52.976 21.8644L50.2634 18.9302L52.2158 15.4436L48.5869 17.1168ZM64.1333 103.566C52.6663 101.771 43.029 94.5528 38.005 84.6579H43.3293C46.987 90.6518 52.6811 95.2984 59.4667 97.6653V40.3348V35.4888C60.9818 35.0374 62.5399 34.6832 64.1333 34.4338V36.7632V99.3947V103.566ZM80 35.4888C78.4847 35.0374 76.9266 34.6832 75.3333 34.4338V39.1064V98.8936V103.566C76.9266 103.317 78.4847 102.963 80 102.511V99.3947V36.7632V35.4888ZM111.444 105.925L108.778 108.902L110.785 112.357L107.13 110.742L104.464 113.718L104.871 109.743L101.217 108.128L105.123 107.286L105.53 103.311L107.537 106.766L111.444 105.925ZM69.5 110C92.4198 110 111 91.4198 111 68.5C111 45.5802 92.4198 27 69.5 27C46.5802 27 28 45.5802 28 68.5C28 91.4198 46.5802 110 69.5 110ZM69.5 111C92.9721 111 112 91.9721 112 68.5C112 45.0279 92.9721 26 69.5 26C46.0279 26 27 45.0279 27 68.5C27 91.9721 46.0279 111 69.5 111ZM66.536 23.144C65.592 23.144 64.704 22.936 63.872 22.52C63.056 22.104 62.4 21.512 61.904 20.744L62.936 19.544C63.4 20.216 63.936 20.728 64.544 21.08C65.152 21.432 65.824 21.608 66.56 21.608C68.64 21.608 69.68 20.376 69.68 17.912V7.736H63.536V6.2H71.432V17.84C71.432 19.616 71.016 20.944 70.184 21.824C69.368 22.704 68.152 23.144 66.536 23.144ZM91.1732 10.4586L84.7441 25.9798L86.3849 26.6595L92.814 11.1383L91.1732 10.4586ZM97.3047 32.958L109.184 21.0786L110.44 22.3344L99.6467 33.1277L106.299 39.7802L105.213 40.8663L97.3047 32.958ZM123.278 37.9478L107.757 44.3769L110.374 50.6962C111.06 52.3518 111.985 53.6657 113.15 54.638C114.336 55.6189 115.656 56.2149 117.112 56.426C118.567 56.637 120.056 56.4272 121.579 55.7966C123.101 55.1659 124.303 54.2613 125.183 53.0829C126.063 51.9044 126.568 50.5522 126.698 49.0263C126.848 47.5091 126.581 45.9227 125.895 44.2671L123.278 37.9478ZM111.756 50.0197L109.855 45.4299L122.538 40.1764L124.439 44.7662C125.009 46.1409 125.228 47.4442 125.098 48.6759C124.988 49.9163 124.577 51.0133 123.863 51.9669C123.15 52.9205 122.165 53.6575 120.908 54.1779C119.667 54.6923 118.449 54.8676 117.256 54.7038C116.077 54.534 115.003 54.0523 114.033 53.2589C113.085 52.4742 112.326 51.3944 111.756 50.0197ZM114 67.236L130.8 67.236V69.012L114 69.012V67.236ZM114.315 79.9873L113.185 79.5188L107.913 92.2462L109.332 92.834L113.693 82.3052L122.413 97.9408L123.544 98.4092L128.642 86.1031L127.222 85.5153L123.027 95.644L114.315 79.9873ZM87.0798 110.053L93.5088 125.574L91.868 126.254L85.4389 110.732L87.0798 110.053ZM77.264 130.8V114H75.56V127.361L68.96 116.136H68.12L61.52 127.437V114H59.816V130.8H61.28L68.5058 118.354L75.8 130.8H77.264ZM56.8753 112.934L50.4462 128.455L44.6369 126.049C43.3212 125.504 42.2792 124.821 41.5107 124C40.7361 123.195 40.2628 122.288 40.0909 121.282C39.898 120.284 40.0342 119.224 40.4996 118.1C40.9527 117.006 41.6032 116.167 42.4512 115.584C43.2784 115.008 44.2537 114.702 45.3773 114.665C46.5009 114.629 47.7206 114.883 49.0362 115.428L53.2047 117.154L55.2345 112.254L56.8753 112.934ZM48.4835 116.887L52.6077 118.596L49.3932 126.356L45.269 124.648C43.7169 124.005 42.6825 123.178 42.166 122.168C41.6346 121.151 41.6261 120.022 42.1404 118.78C42.6486 117.553 43.45 116.768 44.5447 116.425C45.6185 116.09 46.9314 116.244 48.4835 116.887ZM33.648 108.992L38.0604 104.579L30.9158 97.4348L32.0019 96.3487L40.4023 104.749L28.5229 116.629L20.377 108.483L21.4632 107.397L28.3532 114.287L32.5789 110.061L26.4355 103.918L27.5047 102.848L33.648 108.992ZM28.8609 91.6993L13.3397 98.1284L10.9334 92.319C10.3885 91.0034 10.1344 89.7838 10.1712 88.6602C10.1932 87.5427 10.4993 86.5673 11.0893 85.7341C11.6585 84.8922 12.5048 84.2386 13.6282 83.7733C14.7221 83.3202 15.7753 83.187 16.7878 83.3737C17.7794 83.5518 18.6855 84.0251 19.5061 84.7935C19.669 84.9501 19.8265 85.1178 19.9788 85.2965L23.7268 79.3045L24.4707 81.1005L20.9446 86.7051C21.1549 87.083 21.3508 87.491 21.5321 87.9289L23.2588 92.0974L28.1812 90.0585L28.8609 91.6993ZM14.0792 95.8998L21.8619 92.676L20.1536 88.5518C19.5107 86.9997 18.6839 85.9654 17.6733 85.4488C16.6566 84.9174 15.5348 84.9059 14.3079 85.4141C13.0662 85.9284 12.2737 86.7329 11.9305 87.8276C11.5812 88.9074 11.7279 90.2234 12.3709 91.7756L14.0792 95.8998ZM6.2 69.764L23 69.764V67.988L6.2 67.988L6.2 69.764ZM23.0379 59.3585L10.4557 45.834L11.1262 44.2154L29.5863 43.5491L28.87 45.2786L23.955 45.4165L20.3672 54.0782L23.7451 57.6512L23.0379 59.3585ZM19.2835 52.9318L22.3781 45.4608L12.483 45.7386L19.2835 52.9318ZM21.0785 27.8159L32.9579 39.6953L40.8662 31.787L39.78 30.7009L33.1276 37.3534L22.3343 26.5601L21.0785 27.8159Z" fill="#E3E3E3"/>
</svg>
