<svg width="251" height="251" viewBox="0 0 251 251" fill="none" xmlns="http://www.w3.org/2000/svg">
<mask id="mask0_8_91" style="mask-type:alpha" maskUnits="userSpaceOnUse" x="8" y="2" width="235" height="224">
<path d="M124.549 2.92705C124.848 2.00574 126.152 2.00574 126.451 2.92705L153.452 86.0274C153.586 86.4394 153.97 86.7184 154.403 86.7184H241.78C242.749 86.7184 243.151 87.958 242.368 88.5274L171.678 139.886C171.328 140.141 171.181 140.592 171.315 141.004L198.316 224.105C198.615 225.026 197.561 225.792 196.777 225.223L126.088 173.864C125.737 173.609 125.263 173.609 124.912 173.864L54.2228 225.223C53.4391 225.792 52.3847 225.026 52.684 224.105L79.6849 141.004C79.8188 140.592 79.6722 140.141 79.3217 139.886L8.63231 88.5274C7.84859 87.958 8.25137 86.7184 9.22009 86.7184H96.597C97.0302 86.7184 97.4141 86.4394 97.548 86.0274L124.549 2.92705Z" fill="#5E5E5E"/>
</mask>
<g mask="url(#mask0_8_91)">
<path d="M124.549 2.92705C124.848 2.00574 126.152 2.00574 126.451 2.92705L153.452 86.0274C153.586 86.4394 153.97 86.7184 154.403 86.7184H241.78C242.749 86.7184 243.151 87.958 242.368 88.5274L171.678 139.886C171.328 140.141 171.181 140.592 171.315 141.004L198.316 224.105C198.615 225.026 197.561 225.792 196.777 225.223L126.088 173.864C125.737 173.609 125.263 173.609 124.912 173.864L54.2228 225.223C53.4391 225.792 52.3847 225.026 52.684 224.105L79.6849 141.004C79.8188 140.592 79.6722 140.141 79.3217 139.886L8.63231 88.5274C7.84859 87.958 8.25137 86.7184 9.22009 86.7184H96.597C97.0302 86.7184 97.4141 86.4394 97.548 86.0274L124.549 2.92705Z" fill="#5E5E5E"/>
<path d="M125.5 125.5L65 209L125.5 166V125.5Z" fill="#111111"/>
<path d="M125.422 125.777L186.365 208.954L163.973 138.188L125.422 125.777Z" fill="#111111"/>
<path d="M125.069 125.507L227.246 92.274L150.196 91.3927L125.069 125.507Z" fill="#111111"/>
<path d="M125.332 125.79L23.0966 92.7365L84.9664 138.666L125.332 125.79Z" fill="#111111"/>
<path d="M125.592 126.42L125.136 18.9757L100.776 92.0787L125.592 126.42Z" fill="#111111"/>
<path fill-rule="evenodd" clip-rule="evenodd" d="M129.18 11.3262L153.677 86.7184H232.948H244.858L235.223 93.7184L171.091 140.313L195.587 215.705L199.267 227.032L189.632 220.032L125.5 173.437L61.3676 220.032L51.7329 227.032L55.4131 215.705L79.9095 140.313L15.7771 93.7184L6.14241 86.7184H18.0515H97.3235L121.82 11.3262L125.5 0L129.18 11.3262ZM153.677 93.7184H221.633L126.733 124.561C133.685 114.985 141.015 104.879 149.097 93.7184H153.677ZM127.113 125.489L222.055 94.6328L166.976 134.65L163.37 137.27L127.113 125.489ZM28.9751 94.6548L123.877 125.489L87.6295 137.27L84.0239 134.65L28.9751 94.6548ZM124.117 126.463L87.9509 138.217L86.5668 142.476L65.5693 207.1C80.617 186.327 93.0988 169.152 105.579 151.978L105.585 151.971L105.595 151.957L105.596 151.956L105.599 151.952L105.604 151.944C111.677 143.588 117.749 135.233 124.117 126.463ZM124.297 124.574L101.904 93.7184H97.3235H29.3291L124.297 124.574ZM126.912 126.476L163.049 138.217L164.433 142.476L185.436 207.115L126.912 126.476ZM126 126.921L184.687 207.786L129.615 167.774L126 165.148V126.921ZM125 126.948C118.604 135.757 112.507 144.146 106.411 152.535L106.406 152.541L106.404 152.544C93.8969 169.755 81.3894 186.965 66.3007 207.795L121.386 167.774L125 165.148V126.948ZM125 123.841L102.635 93.0237L103.981 88.8815L125 24.1913V123.841ZM126 123.869V24.1913L147.019 88.8815L148.365 93.0242C140.282 104.187 132.951 114.294 126 123.869Z" fill="#202020"/>
</g>
</svg>
